<?plantuml 1.2026.2?><svg xmlns="http://www.w3.org/2000/svg" xmlns:xlink="http://www.w3.org/1999/xlink" contentStyleType="text/css" data-diagram-type="ACTIVITY" height="694px" preserveAspectRatio="none" style="width:444px;height:694px;background:#FFFFFF;" version="1.1" viewBox="0 0 444 694" width="444px" zoomAndPan="magnify"><title>AI Requirements Analyzer &#8212; Pipeline Overview</title><defs/><g><g class="title" data-source-line="5"><text fill="#000000" font-family="sans-serif" font-size="14" font-weight="bold" lengthAdjust="spacing" textLength="329.4888" x="55.8981" y="34.9659">AI Requirements Analyzer &#8212; Pipeline Overview</text></g><ellipse cx="159.745" cy="60.0679" fill="#FFFFFF" rx="10" ry="10" style="stroke:#000000;stroke-width:1;"/><rect fill="#C7ECFF" height="36.3441" rx="12.5" ry="12.5" style="stroke:#181818;stroke-width:0.5;" width="148.3409" x="85.5745" y="90.0679"/><text fill="#000000" font-family="calibri" font-size="12" lengthAdjust="spacing" textLength="128.3409" x="95.5745" y="112.896">receive &lt;doc&gt;.pdf spec</text><rect fill="#FFFFFF" height="52.6882" rx="12.5" ry="12.5" style="stroke:#181818;stroke-width:0.5;" width="266.6124" x="26.4388" y="146.412"/><text fill="#000000" font-family="calibri" font-size="12" lengthAdjust="spacing" textLength="75.1205" x="39.5589" y="169.2401">(S0) Extractor</text><text fill="#000000" font-family="calibri" font-size="12" lengthAdjust="spacing" textLength="240.3723" x="42.6789" y="185.5842">PDF &#8594; raw text per page and file metadata</text><rect fill="#FFFFFF" height="69.0323" rx="12.5" ry="12.5" style="stroke:#181818;stroke-width:0.5;" width="297.49" x="11" y="219.1003"/><text fill="#000000" font-family="calibri" font-size="12" lengthAdjust="spacing" textLength="86.6166" x="24.12" y="241.9283">(S1) Normalizer</text><text fill="#000000" font-family="calibri" font-size="12" lengthAdjust="spacing" textLength="231.3017" x="27.2401" y="258.2725">fix ligatures, dehyphenate, join soft lines,</text><text fill="#000000" font-family="calibri" font-size="12" lengthAdjust="spacing" textLength="271.25" x="27.2401" y="274.6166">strip noise, structure respecting item_id_pattern</text><polygon fill="#FEF0BD" points="50.9943,322.3284,268.4957,322.3284,280.4957,344.8012,268.4957,367.2741,50.9943,367.2741,38.9943,344.8012,50.9943,322.3284" style="stroke:#181818;stroke-width:0.5;"/><text fill="#000000" font-family="calibri" font-size="11" lengthAdjust="spacing" textLength="66.1865" x="50.9943" y="334.0873">(S2) Preflight</text><text fill="#000000" font-family="calibri" font-size="11" lengthAdjust="spacing" textLength="199.1536" x="53.8543" y="349.0692">evaluate doc quality incl. section count</text><text fill="#000000" font-family="calibri" font-size="11" lengthAdjust="spacing" textLength="214.6415" x="53.8543" y="364.0511">requirements count and formatting noise</text><text fill="#000000" font-family="calibri" font-size="11" lengthAdjust="spacing" textLength="15.6309" x="280.4957" y="311.6145">fail</text><text fill="#000000" font-family="calibri" font-size="11" lengthAdjust="spacing" textLength="119.7891" x="280.4957" y="326.5964">score &lt; 0.80 or &lt; 5 reqs</text><text fill="#000000" font-family="calibri" font-size="11" lengthAdjust="spacing" textLength="99.4503" x="283.3557" y="341.5783">emit user guidance</text><ellipse cx="422.2849" cy="344.8012" fill="none" rx="11" ry="11" style="stroke:#000000;stroke-width:1;"/><ellipse cx="422.2849" cy="344.8012" fill="#000000" rx="6" ry="6" style="stroke:#000000;stroke-width:1;"/><rect fill="#FFFFFF" height="52.6882" rx="12.5" ry="12.5" style="stroke:#181818;stroke-width:0.5;" width="234.8002" x="42.3449" y="387.2741"/><text fill="#000000" font-family="calibri" font-size="12" lengthAdjust="spacing" textLength="107.8327" x="55.465" y="410.1022">(S3) LLM Structurer</text><text fill="#000000" font-family="calibri" font-size="12" lengthAdjust="spacing" textLength="208.5601" x="58.585" y="426.4463">text &#8594; structured requirements JSON</text><rect fill="#FFFFFF" height="52.6882" rx="12.5" ry="12.5" style="stroke:#181818;stroke-width:0.5;" width="228.7895" x="45.3503" y="459.9623"/><text fill="#000000" font-family="calibri" font-size="12" lengthAdjust="spacing" textLength="98.7487" x="58.4703" y="482.7904">(S4) LLM Analyzer</text><text fill="#000000" font-family="calibri" font-size="12" lengthAdjust="spacing" textLength="202.5495" x="61.5903" y="499.1345">assess quality, completeness, safety</text><rect fill="#FFFFFF" height="52.6882" rx="12.5" ry="12.5" style="stroke:#181818;stroke-width:0.5;" width="142.3995" x="88.5453" y="532.6505"/><text fill="#000000" font-family="calibri" font-size="12" lengthAdjust="spacing" textLength="76.2485" x="101.6653" y="555.4786">(S5) Renderer</text><text fill="#000000" font-family="calibri" font-size="12" lengthAdjust="spacing" textLength="116.1595" x="104.7853" y="571.8227">JSON &#8594; HTML report</text><rect fill="#D1EECF" height="36.3441" rx="12.5" ry="12.5" style="stroke:#181818;stroke-width:0.5;" width="179.3971" x="70.0464" y="605.3388"/><text fill="#000000" font-family="calibri" font-size="12" lengthAdjust="spacing" textLength="159.3971" x="80.0464" y="628.1668">deliver 05_report&lt;doc&gt;.html</text><ellipse cx="159.745" cy="672.6829" fill="none" rx="11" ry="11" style="stroke:#000000;stroke-width:1;"/><ellipse cx="159.745" cy="672.6829" fill="#000000" rx="6" ry="6" style="stroke:#000000;stroke-width:1;"/><line style="stroke:#181818;stroke-width:1;" x1="159.745" x2="159.745" y1="70.0679" y2="90.0679"/><polygon fill="#181818" points="155.745,80.0679,159.745,90.0679,163.745,80.0679,159.745,84.0679" style="stroke:#181818;stroke-width:1;"/><line style="stroke:#181818;stroke-width:1;" x1="159.745" x2="159.745" y1="126.412" y2="146.412"/><polygon fill="#181818" points="155.745,136.412,159.745,146.412,163.745,136.412,159.745,140.412" style="stroke:#181818;stroke-width:1;"/><line style="stroke:#181818;stroke-width:1;" x1="159.745" x2="159.745" y1="199.1003" y2="219.1003"/><polygon fill="#181818" points="155.745,209.1003,159.745,219.1003,163.745,209.1003,159.745,213.1003" style="stroke:#181818;stroke-width:1;"/><line style="stroke:#181818;stroke-width:1;" x1="159.745" x2="159.745" y1="367.2741" y2="387.2741"/><polygon fill="#181818" points="155.745,377.2741,159.745,387.2741,163.745,377.2741,159.745,381.2741" style="stroke:#181818;stroke-width:1;"/><line style="stroke:#181818;stroke-width:1;" x1="280.4957" x2="411.2849" y1="344.8012" y2="344.8012"/><polygon fill="#181818" points="401.2849,340.8012,411.2849,344.8012,401.2849,348.8012,405.2849,344.8012" style="stroke:#181818;stroke-width:1;"/><line style="stroke:#181818;stroke-width:1;" x1="159.745" x2="159.745" y1="288.1326" y2="322.3284"/><polygon fill="#181818" points="155.745,312.3284,159.745,322.3284,163.745,312.3284,159.745,316.3284" style="stroke:#181818;stroke-width:1;"/><line style="stroke:#181818;stroke-width:1;" x1="159.745" x2="159.745" y1="439.9623" y2="459.9623"/><polygon fill="#181818" points="155.745,449.9623,159.745,459.9623,163.745,449.9623,159.745,453.9623" style="stroke:#181818;stroke-width:1;"/><line style="stroke:#181818;stroke-width:1;" x1="159.745" x2="159.745" y1="512.6505" y2="532.6505"/><polygon fill="#181818" points="155.745,522.6505,159.745,532.6505,163.745,522.6505,159.745,526.6505" style="stroke:#181818;stroke-width:1;"/><line style="stroke:#181818;stroke-width:1;" x1="159.745" x2="159.745" y1="585.3388" y2="605.3388"/><polygon fill="#181818" points="155.745,595.3388,159.745,605.3388,163.745,595.3388,159.745,599.3388" style="stroke:#181818;stroke-width:1;"/><line style="stroke:#181818;stroke-width:1;" x1="159.745" x2="159.745" y1="641.6829" y2="661.6829"/><polygon fill="#181818" points="155.745,651.6829,159.745,661.6829,163.745,651.6829,159.745,655.6829" style="stroke:#181818;stroke-width:1;"/><?plantuml-src hLLHQnj747w_Np66GdMWIkSuXY0BWqdIriMHJUqy9U7OtCtfnkpjNdRdPAjFVIhqjVGlz8_vbsHspvAjI2sa3WXEkpixEzyttypibLYHGV3TnxonPQVHvwtY6aQZyVgNx94fT5TkcurRPw-nO3zcR5gj6FrOFeQxHezLmRGWNkObgRbJpQYLtUJxlTMJjRt92siyEqM6VP8miKOuEOLVyLD73XkKRJWnIYz_GmTtl_yD5zIY3hVF5-WMX3T9adXMZfE9mm9fWJ0jRN4yQiiAV8l54KodtvtEBjvU7HydoGG6braAhs_bpOAjIm0kNlq8Tt_y1KxT0ECjGojFjMgEe4m95Kb43R8g5QiZ8QAIwBT3DvOH7Crh5eyl7mucilm1JatRyGI0mdSylUViUBoED5gTTnpD10nLAd3wO9bbkSINOnzttb-yzjO0lDiyYxiVeiCpQaX2W4RTmduMCVbXN1ramopBeAYLymaAp11_iYV_gEf9sazXPbsZD0dpugsYMz0qLzovuAJ4UjdMQ2JXGxYsPC3RYY5anW_5NF1JArx9oxaikY9S1BahAM4oSo0HJ4vbK16ZCq-bzby9sg0ssy_D2bNvs6YB0wfWCBXybiA5mqg7rzyRm8NIdK06kGYVEd73ImYbCG8VO4aw2jiP1h5rZoNSxqOzXUSvCX3PIO65HXXKYlHxumihB4qX6xt8m3hvTnWS-V2sv18wBzgSTrGgKs0QURPjqeVyV_ZRO723cr09A_us67oMgqeIbhShNXvR_IJaY2leSTpz-K-Fv6JsAi38Unh2zk5krHsaS7Rs1YvNWWdAYpKP2dGjetAJt5ykpsT7JuV_dy3My0zohPly8PHL4GPTZtnHOwD6Y_qFzzS4JA032gMrX5sZi38ehEUWcix9_NGt4Szx8bQjJzmfxz7xbUg68YdfjyWe1IVrw5M5lFm6BEp4zoK9pwEHweDRKn3NdlmtfE4mbL5WIkoL418TbV3prPipqK1h7J-vR-p0ijao3lF-fRvRr2mZB9pFR1XK0P6FWwcKNBY637cc0kwdOIXpQ_Ho1xfInfYCi5t-uyWwVtlLpwoln3Tv53s44Jq16nTRSsSDPK0ft9_57XMwcr6Dj3bq4gCqBMURVdZ5QHcyRY6AdUWp?></g></svg>